<svg xmlns="http://www.w3.org/2000/svg" xmlns:xlink="http://www.w3.org/1999/xlink" width="500" zoomAndPan="magnify"
  viewBox="0 0 375 374.999991" height="500" preserveAspectRatio="xMidYMid meet" version="1.0">
  <defs>
    <clipPath id="a8d9316c4e">
      <path d="M 7.839844 0 L 367.089844 0 L 367.089844 375 L 7.839844 375 Z M 7.839844 0 " clip-rule="nonzero" />
    </clipPath>
  </defs>
  <g clip-path="url(#a8d9316c4e)">
    <path fill="#1cffa0"
      d="M 7.839844 319.816406 L 7.839844 374.886719 L 46.773438 335.945312 L 81.585938 301.128906 L 85.707031 297.003906 L 120.519531 262.1875 L 156.433594 226.269531 L 159.453125 223.25 L 160.289062 222.410156 L 161.128906 223.25 L 216.609375 223.25 C 256.546875 223.25 289.222656 190.566406 289.222656 150.621094 C 289.222656 110.675781 256.546875 77.996094 216.609375 77.996094 L 85.707031 77.996094 L 85.707031 116.933594 L 216.609375 116.933594 C 235.132812 116.933594 250.289062 132.09375 250.289062 150.621094 C 250.289062 169.148438 235.132812 184.308594 216.609375 184.308594 L 143.324219 184.308594 L 104.390625 223.25 L 85.707031 241.933594 L 65.457031 262.1875 L 46.773438 280.875 L 46.773438 39.054688 L 216.609375 39.054688 C 277.960938 39.054688 328.15625 89.261719 328.15625 150.621094 C 328.15625 200.367188 295.167969 242.777344 249.988281 257.054688 C 239.4375 260.390625 228.222656 262.1875 216.609375 262.1875 L 175.578125 262.1875 L 136.644531 301.128906 L 216.609375 301.128906 C 223.703125 301.128906 230.691406 300.628906 237.535156 299.667969 L 312.738281 374.882812 L 367.089844 374.882812 L 367.089844 374.175781 L 279.976562 287.046875 C 331.308594 263.011719 367.089844 210.792969 367.089844 150.621094 C 367.089844 67.84375 299.375 0.113281 216.609375 0.113281 L 7.839844 0.113281 Z M 7.839844 319.816406 "
      fill-opacity="1" fill-rule="evenodd" />
  </g>
</svg>