<svg id="logo" xmlns="http://www.w3.org/2000/svg" viewBox="0 0 100 100" className="block w-full h-full mx-auto fill-none select-none">
    <title>Loader Logo</title>
    <g>
      <!-- <g id="B" transform="translate(11.000000, 5.000000)">
        <path
          d="M45.691667,45.15 C48.591667,46.1 50.691667,48.95 50.691667,52.2 C50.691667,57.95 46.691667,61 40.291667,61 L28.541667,61 L28.541667,30.3 L39.291667,30.3 C45.691667,30.3 49.691667,33.15 49.691667,38.65 C49.691667,41.95 47.941667,44.35 45.691667,45.15 Z M33.591667,43.2 L39.241667,43.2 C42.791667,43.2 44.691667,41.85 44.691667,38.95 C44.691667,36.05 42.791667,34.8 39.241667,34.8 L33.591667,34.8 L33.591667,43.2 Z M33.591667,47.5 L33.591667,56.5 L40.191667,56.5 C43.691667,56.5 45.591667,54.75 45.591667,52 C45.591667,49.2 43.691667,47.5 40.191667,47.5 L33.591667,47.5 Z"
          fill="currentColor"
        />
      </g> -->
      <g id="R" transform="translate(11.000000, 5.000000)" clipPath="url(#a8d9316c4e)" className="opacity-0">
        <path fill="#1cffa0" viewBox="0 0 100 100"
          d="M 7.839844 319.816406 L 7.839844 374.886719 L 46.773438 335.945312 L 81.585938 301.128906 L 85.707031 297.003906 L 120.519531 262.1875 L 156.433594 226.269531 L 159.453125 223.25 L 160.289062 222.410156 L 161.128906 223.25 L 216.609375 223.25 C 256.546875 223.25 289.222656 190.566406 289.222656 150.621094 C 289.222656 110.675781 256.546875 77.996094 216.609375 77.996094 L 85.707031 77.996094 L 85.707031 116.933594 L 216.609375 116.933594 C 235.132812 116.933594 250.289062 132.09375 250.289062 150.621094 C 250.289062 169.148438 235.132812 184.308594 216.609375 184.308594 L 143.324219 184.308594 L 104.390625 223.25 L 85.707031 241.933594 L 65.457031 262.1875 L 46.773438 280.875 L 46.773438 39.054688 L 216.609375 39.054688 C 277.960938 39.054688 328.15625 89.261719 328.15625 150.621094 C 328.15625 200.367188 295.167969 242.777344 249.988281 257.054688 C 239.4375 260.390625 228.222656 262.1875 216.609375 262.1875 L 175.578125 262.1875 L 136.644531 301.128906 L 216.609375 301.128906 C 223.703125 301.128906 230.691406 300.628906 237.535156 299.667969 L 312.738281 374.882812 L 367.089844 374.882812 L 367.089844 374.175781 L 279.976562 287.046875 C 331.308594 263.011719 367.089844 210.792969 367.089844 150.621094 C 367.089844 67.84375 299.375 0.113281 216.609375 0.113281 L 7.839844 0.113281 Z M 7.839844 319.816406 "
          fillOpacity="1" fillRule="evenodd" />
      </g>

      <path
        stroke="currentColor"
        strokeWidth="5"
        strokeLinecap="round"
        strokeLinejoin="round"
        d="M 50, 5
                  L 11, 27
                  L 11, 72
                  L 50, 95
                  L 89, 73
                  L 89, 28 z"
      />
    </g>
  </svg>